<svg xmlns="http://www.w3.org/2000/svg" width="733" height="461" fill="none" viewBox="0 0 733 461">
  <path fill="#414141" d="M54.2 233.6v-1.2h216v1.2h-216ZM167 6.2h-51.3L14.3 453.8H68v1.2H-94v-1.2h51.3L58.7 6.2H5V5h162v1.2ZM419 5v1.2h-51.3L266.3 453.8H320v1.2H158v-1.2h51.3L310.7 6.2H257V5h162Zm9.436 456c-15.6 0-27.2-3.4-34.8-10.2-7.6-7-11.4-16.2-11.4-27.6 0-3 .2-6.1.6-9.3.6-3.4 1.3-6.7 2.1-9.9l64.2-223.8h-46.8V179h93.9l-72.6 257.4c-.4 1.6-.7 3.3-.9 5.1-.2 1.6-.3 3.1-.3 4.5 0 3.4.8 6.4 2.4 9 1.8 2.4 4.9 3.6 9.3 3.6 12 0 22.7-3.2 32.1-9.6 9.6-6.4 18.6-16.6 27-30.6 8.6-14.2 17.2-32.7 25.8-55.5l.9.3c-8.6 23-17.2 41.7-25.8 56.1-8.6 14.4-18.1 25-28.5 31.8-10.4 6.6-22.8 9.9-37.2 9.9Zm73.5-386.7c-6.6 0-12.6-1.6-18-4.8-5.4-3.4-9.7-7.8-12.9-13.2-3.2-5.6-4.8-11.7-4.8-18.3 0-6.6 1.6-12.6 4.8-18 3.2-5.6 7.5-10 12.9-13.2 5.4-3.2 11.4-4.8 18-4.8s12.6 1.6 18 4.8c5.6 3.2 10 7.6 13.2 13.2 3.4 5.4 5.1 11.4 5.1 18s-1.7 12.7-5.1 18.3c-3.2 5.4-7.6 9.8-13.2 13.2-5.4 3.2-11.4 4.8-18 4.8Zm130.622 255.9c3.6-18 6.8-36.4 9.6-55.2 2.8-19 5.1-38 6.9-57 2-19.2 3.6-38 4.8-56.4 1.4-18.4 2.4-36.2 3-53.4.6-17.2.9-33.4.9-48.6 0-11.2 1.1-21.3 3.3-30.3 2.4-9 6.4-16.1 12-21.3 5.6-5.2 13.3-7.8 23.1-7.8 10.6 0 19.2 3.8 25.8 11.4 6.8 7.6 9 17.6 6.6 30-2.4 12.8-6.4 28.1-12 45.9-5.6 17.6-12.1 36.7-19.5 57.3-7.4 20.6-15.1 41.7-23.1 63.3-7.8 21.6-15.3 42.9-22.5 63.9-7 20.8-12.9 40.2-17.7 58.2h-1.2Zm-23.4 130.8c-6.6 0-12.6-1.6-18-4.8-5.2-3-9.4-7.2-12.6-12.6-3.2-5.4-4.8-11.4-4.8-18s1.6-12.6 4.8-18c3.2-5.4 7.4-9.6 12.6-12.6 5.4-3.2 11.4-4.8 18-4.8s12.6 1.6 18 4.8c5.4 3 9.6 7.2 12.6 12.6 3.2 5.4 4.8 11.4 4.8 18s-1.6 12.6-4.8 18c-3 5.4-7.2 9.6-12.6 12.6-5.4 3.2-11.4 4.8-18 4.8Z"/>
</svg>
