<svg xmlns="http://www.w3.org/2000/svg" width="608" height="623" fill="none" viewBox="0 0 608 623">
  <g class="Group 7">
    <path stroke="#555" d="M106.5.5h501v622h-501z" class="Rectangle 37"/>
    <path stroke="#555" d="M167.5 35.5h81v14h-81z" class="Rectangle 38"/>
    <path stroke="#555" d="M378.5 85.5h90v14h-90z" class="Rectangle 43"/>
    <path stroke="#555" d="M212.5 110.5h197v14h-197z" class="Rectangle 44"/>
    <path stroke="#555" d="M265.5 185.5h95v14h-95z" class="Rectangle 47"/>
    <path stroke="#555" d="M371.5 185.5h38v14h-38z" class="Rectangle 48"/>
    <path stroke="#555" d="M259.5 35.5h38v14h-38z" class="Rectangle 40"/>
    <path stroke="#555" d="M329.5 85.5h38v14h-38z" class="Rectangle 42"/>
    <path stroke="#555" d="M212.5 135.5h64v14h-64z" class="Rectangle 45"/>
    <path stroke="#555" d="M212.5 60.5h210v14h-210z" class="Rectangle 39"/>
    <path stroke="#555" d="M212.5 85.5h106v14h-106z" class="Rectangle 41"/>
    <path stroke="#555" d="M212.5 160.5h77v14h-77z" class="Rectangle 46"/>
    <path stroke="#555" d="M266.5 210.5h88v14h-88z" class="Rectangle 49"/>
    <path stroke="#555" d="M365.5 210.5h173v14h-173z" class="Rectangle 50"/>
    <rect width="260" height="152" x="138.5" y="331.5" stroke="#555" class="Rectangle 51" rx="9.5"/>
    <rect width="199" height="116" x=".5" y="425.5" stroke="#555" class="Rectangle 52" rx="9.5"/>
    <rect width="260" height="152" x="305.5" y="432.5" stroke="#555" class="Rectangle 53" rx="76"/>
    <path fill="#555" d="m311.38 49.92-.53.848.012.008.013.007.505-.863Zm-1.3-1.32-.863.505.005.008.004.008.854-.521Zm0-3.6-.859-.511-.004.006.863.505Zm1.3-1.32.515.858.006-.004-.521-.854Zm3.62 0-.521.854.013.007.012.007.496-.868Zm1.32 1.32-.868.496.005.01.863-.506Zm0 3.6-.863-.505.863.505ZM315 49.92l.505.863.006-.004-.511-.859Zm-1.8-.52c-.499 0-.93-.117-1.315-.343l-1.01 1.726c.708.414 1.49.617 2.325.617v-2Zm-1.29-.328a2.97 2.97 0 0 1-.976-.993l-1.708 1.042a4.97 4.97 0 0 0 1.624 1.647l1.06-1.696Zm-.967-.977a2.503 2.503 0 0 1-.343-1.295h-2c0 .825.204 1.6.617 2.305l1.726-1.01ZM310.6 46.8c0-.482.116-.906.343-1.295l-1.726-1.01a4.495 4.495 0 0 0-.617 2.305h2Zm.339-1.288c.253-.425.571-.744.955-.974l-1.028-1.715a4.732 4.732 0 0 0-1.645 1.666l1.718 1.023Zm.962-.978a2.426 2.426 0 0 1 1.299-.354v-2c-.842 0-1.63.213-2.341.646l1.042 1.708Zm1.299-.354c.474 0 .893.118 1.279.354l1.042-1.708a4.393 4.393 0 0 0-2.321-.646v2Zm1.304.368c.405.232.716.543.948.948l1.736-.992a4.48 4.48 0 0 0-1.692-1.692l-.992 1.736Zm.953.957c.227.389.343.813.343 1.295h2c0-.825-.204-1.6-.617-2.305l-1.726 1.01Zm.343 1.295c0 .482-.116.906-.343 1.295l1.726 1.01c.413-.705.617-1.48.617-2.305h-2Zm-.343 1.295a2.683 2.683 0 0 1-.968.966l1.022 1.718a4.685 4.685 0 0 0 1.672-1.674l-1.726-1.01Zm-.962.962a2.5 2.5 0 0 1-1.295.343v2c.825 0 1.6-.204 2.305-.617l-1.01-1.726Zm7.276.863-.53.848.012.008.012.007.506-.863Zm-1.3-1.32-.863.505.004.008.005.008.854-.521Zm0-3.6-.86-.511-.003.006.863.505Zm1.3-1.32.514.858.006-.004-.52-.854Zm3.62 0-.521.854.012.007.012.007.497-.868Zm1.32 1.32-.869.496.006.01.863-.506Zm0 3.6-.863-.505.863.505Zm-1.32 1.32.505.863.006-.004-.511-.859Zm-1.8-.52c-.499 0-.93-.117-1.315-.343l-1.011 1.726a4.54 4.54 0 0 0 2.326.617v-2Zm-1.29-.328a2.974 2.974 0 0 1-.977-.993l-1.707 1.042a4.97 4.97 0 0 0 1.624 1.647l1.06-1.696Zm-.967-.977a2.493 2.493 0 0 1-.343-1.295h-2c0 .825.204 1.6.617 2.305l1.726-1.01Zm-.343-1.295c0-.482.115-.906.343-1.295l-1.726-1.01a4.495 4.495 0 0 0-.617 2.305h2Zm.339-1.288a2.73 2.73 0 0 1 .955-.974l-1.029-1.715a4.74 4.74 0 0 0-1.645 1.666l1.719 1.023Zm.961-.978a2.43 2.43 0 0 1 1.3-.354v-2c-.843 0-1.631.213-2.341.646l1.041 1.708Zm1.3-.354c.473 0 .893.118 1.279.354l1.041-1.708a4.39 4.39 0 0 0-2.32-.646v2Zm1.303.368c.405.232.717.543.948.948l1.737-.992a4.488 4.488 0 0 0-1.692-1.692l-.993 1.736Zm.954.957c.227.389.343.813.343 1.295h2c0-.825-.205-1.6-.617-2.305l-1.726 1.01Zm.343 1.295c0 .482-.116.906-.343 1.295l1.726 1.01c.412-.705.617-1.48.617-2.305h-2Zm-.343 1.295c-.232.396-.55.716-.969.966l1.023 1.718a4.685 4.685 0 0 0 1.672-1.674l-1.726-1.01Zm-.963.962a2.497 2.497 0 0 1-1.294.343v2c.825 0 1.6-.204 2.305-.617l-1.011-1.726Zm7.276.863-.53.848.013.008.012.007.505-.863Zm-1.3-1.32-.863.505.005.008.004.008.854-.521Zm0-3.6-.859-.511-.004.006.863.505Zm1.3-1.32.515.858.006-.004-.521-.854Zm3.62 0-.52.854.012.007.012.007.496-.868Zm1.32 1.32-.868.496.005.01.863-.506Zm0 3.6-.863-.505.863.505Zm-1.32 1.32.505.863.007-.004-.512-.859Zm-1.8-.52a2.54 2.54 0 0 1-1.315-.343l-1.01 1.726a4.536 4.536 0 0 0 2.325.617v-2Zm-1.29-.328a2.97 2.97 0 0 1-.976-.993l-1.708 1.042a4.98 4.98 0 0 0 1.624 1.647l1.06-1.696Zm-.967-.977a2.503 2.503 0 0 1-.343-1.295h-2c0 .825.205 1.6.617 2.305l1.726-1.01Zm-.343-1.295c0-.482.116-.906.343-1.295l-1.726-1.01a4.504 4.504 0 0 0-.617 2.305h2Zm.34-1.288c.252-.425.57-.744.955-.974l-1.029-1.715a4.74 4.74 0 0 0-1.645 1.666l1.719 1.023Zm.961-.978a2.426 2.426 0 0 1 1.299-.354v-2c-.842 0-1.63.213-2.34.646l1.041 1.708Zm1.299-.354c.474 0 .893.118 1.28.354l1.041-1.708a4.393 4.393 0 0 0-2.321-.646v2Zm1.304.368c.405.232.717.543.948.948l1.736-.992a4.48 4.48 0 0 0-1.692-1.692l-.992 1.736Zm.953.957c.228.389.343.813.343 1.295h2c0-.825-.204-1.6-.617-2.305l-1.726 1.01Zm.343 1.295c0 .482-.115.906-.343 1.295l1.726 1.01c.413-.705.617-1.48.617-2.305h-2Zm-.343 1.295a2.683 2.683 0 0 1-.968.966l1.023 1.718a4.682 4.682 0 0 0 1.671-1.674l-1.726-1.01Zm-.962.962a2.498 2.498 0 0 1-1.295.343v2c.825 0 1.601-.204 2.305-.617l-1.01-1.726Z" class="..."/>
    <path fill="#555" d="m437.336 169.562.947.321.446-1.321h-1.393v1Zm-10.43 30.879v1h.718l.23-.68-.948-.32Zm-4.179 0-.948-.32-.446 1.32h1.394v-1Zm10.429-30.879v-1h-.717l-.23.68.947.32Zm3.233-.32-10.43 30.879 1.895.64 10.429-30.878-1.894-.641Zm-9.483 30.199h-4.179v2h4.179v-2Zm-3.232 1.32 10.43-30.878-1.895-.641-10.43 30.879 1.895.64Zm9.482-30.199h4.18v-2h-4.18v2Zm14.336-1 .948.321.445-1.321h-1.393v1Zm-10.43 30.879v1h.718l.23-.68-.948-.32Zm-4.179 0-.948-.32-.445 1.32h1.393v-1Zm10.429-30.879v-1h-.717l-.23.68.947.32Zm3.233-.32-10.43 30.879 1.895.64 10.43-30.878-1.895-.641Zm-9.483 30.199h-4.179v2h4.179v-2Zm-3.232 1.32 10.43-30.878-1.895-.641-10.43 30.879 1.895.64Zm9.482-30.199h4.18v-2h-4.18v2Z" class="//"/>
    <g class="numbers">
      <path stroke="#555" d="M153.839 37.277v-.5h-.803l-.086.033-3.874 1.465-.324.122v2.283l.672-.245 2.06-.751V48.5h2.355V37.277Z" class="1"/>
      <path fill="#555" d="M155.874 70.887h1v-1h-1v1Zm0 1.113v1h1v-1h-1Zm-6.98 0h-1v1h1v-1Zm0-.974-.744-.668-.256.285v.383h1Zm3.493-3.89.744.669-.744-.668Zm.996-1.215-.815-.58-.002.003.817.577Zm.498-.901-.939-.342-.004.01.943.332Zm-.073-1.772-.897.44.004.01.005.009.888-.46Zm-2.827-.667.5.866.005-.003-.505-.863Zm-.938 1.89v1h1v-1h-1Zm-1.355 0h-1v1h1v-1Zm1.568-2.835.492.87.007-.003-.499-.867Zm3.64-.088-.447.895.007.003.44-.898Zm1.099.996-.861.51.007.01.854-.52Zm.227 2.447-.949-.317-.003.01.952.307Zm-.432.952-.864-.505-.006.01.87.495Zm-.638.937-.783-.621-.006.007.789.614Zm-.769.909.736.677.001-.001-.737-.676Zm-2.856 3.098-.735-.678-1.547 1.678h2.282v-1Zm4.347 0V72h2v-1.113h-2Zm1 .113h-6.98v2h6.98v-2Zm-5.98 1v-.974h-2V72h2Zm-.257-.306 3.494-3.889-1.488-1.337-3.493 3.89 1.487 1.336Zm3.494-3.89c.443-.492.803-.93 1.069-1.306l-1.634-1.154c-.203.288-.506.66-.923 1.125l1.488 1.336Zm1.068-1.304c.27-.38.491-.765.626-1.148l-1.887-.664c-.051.145-.162.36-.37.654l1.631 1.158Zm.622-1.138a3.37 3.37 0 0 0 .207-1.162h-2c0 .158-.028.316-.086.478l1.879.684Zm.207-1.162c0-.495-.104-.973-.332-1.412l-1.776.919c.066.127.108.284.108.493h2Zm-.322-1.394a2.648 2.648 0 0 0-1.005-1.1l-1.046 1.705a.65.65 0 0 1 .256.278l1.795-.883Zm-1.005-1.1c-.466-.285-.992-.403-1.534-.403v2c.25 0 .397.053.488.108l1.046-1.704Zm-1.534-.403c-.6 0-1.182.117-1.691.415l1.01 1.726c.126-.073.335-.141.681-.141v-2Zm-1.687.412a2.714 2.714 0 0 0-1.105 1.197l1.805.862a.72.72 0 0 1 .301-.327l-1.001-1.732Zm-1.105 1.197a3.593 3.593 0 0 0-.332 1.559h2c0-.301.055-.526.137-.697l-1.805-.862Zm.668.559h-1.355v2h1.355v-2Zm-.355 1c0-.449.097-.836.28-1.18l-1.768-.936a4.466 4.466 0 0 0-.512 2.116h2Zm.28-1.18c.169-.32.419-.58.78-.784l-.985-1.741a3.914 3.914 0 0 0-1.563 1.589l1.768.936Zm.787-.788c.33-.19.785-.313 1.412-.313v-2c-.885 0-1.705.174-2.41.58l.998 1.733Zm1.412-.313c.558 0 .973.099 1.282.253l.894-1.79c-.648-.323-1.386-.463-2.176-.463v2Zm1.289.256c.316.155.53.357.678.607l1.722-1.017a3.537 3.537 0 0 0-1.52-1.386l-.88 1.796Zm.685.619c.149.246.242.558.242.974h2c0-.727-.167-1.411-.534-2.015l-1.708 1.04Zm.242.974c0 .196-.034.406-.11.635l1.897.633c.139-.415.213-.84.213-1.268h-2Zm-.113.644a3.812 3.812 0 0 1-.344.755l1.727 1.01c.218-.374.393-.757.52-1.15l-1.903-.615Zm-.35.765c-.153.27-.336.54-.551.81l1.567 1.244c.273-.345.515-.7.723-1.064l-1.739-.99Zm-.557.818c-.222.286-.461.568-.716.846l1.473 1.353c.291-.317.565-.64.822-.97l-1.579-1.229Zm-.715.845-2.856 3.098 1.47 1.356 2.857-3.099-1.471-1.355Zm-2.121 4.776h5.347v-2h-5.347v2Z" class="2"/>
      <path fill="#555" d="M150.864 91.001v-1h-1v1h1Zm2.138-.234.453.892.006-.003-.459-.889Zm.696-.652-.872-.49-.003.006.875.484Zm-2.636-2.585.453.891.006-.003-.459-.888Zm-.682.63-.854-.52-.007.012.861.508Zm-.241.966v1h1v-1h-1Zm-1.355 0h-1v1h1v-1Zm1.56-2.541-.468-.884-.004.002.472.882Zm3.42-.051-.429.903.008.004.421-.907Zm1.128 1.01-.858.514.002.004.856-.518Zm.212 2.527-.924-.381-.003.007.927.374Zm-.578.85-.707-.707-.007.006.714.7Zm-1.011.652.372.928.009-.004-.381-.924Zm-2.651.249h-1v1h1v-1Zm0 .293h-1v1h1v-1Zm0-.813v-1h-1v1h1Zm3.889.886-.727.687.007.007.72-.694Zm.542.886-.953.303.003.01.003.008.947-.32Zm-.095 2.278-.915-.405-.004.01.919.395Zm-.711.981-.657-.753-.006.005.663.749Zm-3.72.616-.31.95.004.002.306-.952Zm-1.077-.572-.631.777.008.005.623-.782Zm-.733-.93-.903.428.002.005.901-.433Zm-.263-1.267v-1h-1v1h1Zm1.355 0h1v-1h-1v1Zm.241.974-.865.501.007.012.858-.513Zm.704.652-.459.889.008.004.009.004.442-.897Zm2.153.015.429.903.006-.003-.435-.9Zm.696-.66-.87-.492-.006.01.876.483Zm-.03-2.197-.84.542.004.006.836-.548Zm-.791-.637-.387.922.008.003.008.004.371-.929Zm-2.16-.326h.967v-2h-.967v2Zm.967 0c.575 0 1.134-.093 1.624-.342l-.905-1.784c-.125.064-.348.126-.719.126v2Zm1.63-.345c.465-.24.853-.589 1.112-1.056l-1.75-.97a.615.615 0 0 1-.279.248l.917 1.778Zm1.109-1.051c.248-.44.363-.924.363-1.427h-2c0 .19-.042.332-.107.448l1.744.979Zm.363-1.427c0-.516-.086-1.022-.308-1.474l-1.795.882c.051.104.103.287.103.592h2Zm-.308-1.474a2.37 2.37 0 0 0-1.053-1.077l-.92 1.776a.376.376 0 0 1 .178.183l1.795-.882Zm-1.053-1.077c-.458-.237-.975-.324-1.5-.324v2c.315 0 .491.054.58.1l.92-1.776Zm-1.5-.324a3.17 3.17 0 0 0-1.469.338l.918 1.777a1.18 1.18 0 0 1 .551-.115v-2Zm-1.464.335c-.452.23-.819.568-1.082 1.003l1.709 1.038a.668.668 0 0 1 .28-.258l-.907-1.783Zm-1.089 1.014c-.266.452-.38.955-.38 1.474h2c0-.223.047-.363.103-.459l-1.723-1.015Zm.62.474h-1.355v2h1.355v-2Zm-.355 1c0-.364.089-.675.262-.955l-1.704-1.048a3.769 3.769 0 0 0-.558 2.003h2Zm.262-.955c.173-.283.421-.518.769-.704l-.943-1.764a3.954 3.954 0 0 0-1.53 1.42l1.704 1.048Zm.766-.702c.332-.176.743-.28 1.26-.28v-2c-.791 0-1.532.16-2.196.512l.936 1.768Zm1.26-.28c.526 0 .939.094 1.263.248l.858-1.807c-.642-.304-1.358-.44-2.121-.44v2Zm1.271.252c.305.141.527.343.691.617l1.716-1.027a3.518 3.518 0 0 0-1.564-1.404l-.843 1.814Zm.693.62c.152.251.259.614.259 1.146h2c0-.796-.161-1.541-.547-2.18l-1.712 1.035Zm.259 1.146c0 .11-.026.268-.115.483l1.849.763c.165-.4.266-.82.266-1.246h-2Zm-.118.49a1.559 1.559 0 0 1-.358.517l1.414 1.414a3.56 3.56 0 0 0 .799-1.183l-1.855-.748Zm-.365.523c-.146.15-.361.298-.678.428l.762 1.85a3.986 3.986 0 0 0 1.344-.877l-1.428-1.4Zm-.668.424c-.268.107-.633.178-1.123.178v2c.672 0 1.303-.096 1.866-.32l-.743-1.858Zm-1.123.178h-1.157v2h1.157v-2Zm-.157 1v-.82h-2v.82h2Zm0 .293v-.813h-2v.813h2Zm-1 .187h1.157v-2h-1.157v2Zm1.157 0c.609 0 1.045.073 1.344.182l.681-1.88c-.59-.215-1.276-.302-2.025-.302v2Zm1.344.182c.337.122.54.263.661.391l1.454-1.374c-.387-.409-.882-.698-1.434-.898l-.681 1.88Zm.668.398c.163.17.258.334.309.495l1.906-.606a3.263 3.263 0 0 0-.775-1.277l-1.44 1.388Zm.315.513c.074.22.108.429.108.631h2c0-.432-.073-.858-.214-1.272l-1.894.64Zm.108.631c0 .384-.065.684-.171.921l1.829.81a4.234 4.234 0 0 0 .342-1.73h-2Zm-.175.93a1.702 1.702 0 0 1-.449.624l1.315 1.507c.423-.37.748-.82.971-1.34l-1.837-.79Zm-.455.63c-.195.172-.431.31-.722.407l.632 1.897a4.038 4.038 0 0 0 1.417-.808l-1.327-1.497Zm-.722.407a3.22 3.22 0 0 1-1.024.154v2c.578 0 1.133-.082 1.656-.257l-.632-1.897Zm-1.024.154a3.26 3.26 0 0 1-1.005-.15l-.612 1.904a5.258 5.258 0 0 0 1.617.246v-2Zm-1.002-.15a2.402 2.402 0 0 1-.763-.402l-1.246 1.564c.412.329.879.574 1.39.74l.619-1.901Zm-.756-.396a1.678 1.678 0 0 1-.461-.587l-1.803.866c.239.498.575.926 1.003 1.274l1.261-1.553Zm-.459-.582a1.937 1.937 0 0 1-.167-.839h-2c0 .6.112 1.171.36 1.695l1.807-.856Zm-1.167.161h1.355v-2h-1.355v2Zm.355-1c0 .52.114 1.023.376 1.475l1.731-1.002a.92.92 0 0 1-.107-.473h-2Zm.383 1.487c.266.447.643.79 1.103 1.028l.917-1.777a.723.723 0 0 1-.303-.276l-1.717 1.025Zm1.12 1.036c.471.232.989.33 1.526.33v-2c-.294 0-.499-.053-.643-.124l-.883 1.794Zm1.526.33c.526 0 1.036-.09 1.498-.31l-.858-1.805c-.134.063-.337.115-.64.115v2Zm1.504-.312a2.54 2.54 0 0 0 1.137-1.078l-1.752-.963a.543.543 0 0 1-.256.24l.871 1.801Zm1.131-1.066c.274-.484.379-1.036.379-1.6h-2c0 .326-.061.511-.119.614l1.74.986Zm.379-1.6c0-.579-.121-1.149-.442-1.639l-1.673 1.096c.05.077.115.234.115.544h2Zm-.438-1.632a2.631 2.631 0 0 0-1.26-1.024l-.743 1.857a.64.64 0 0 1 .322.25l1.681-1.083Zm-1.244-1.018c-.487-.204-1.022-.29-1.581-.29v2c.358 0 .619.055.806.134l.775-1.844Zm-1.581-.29h-.967v2h.967v-2Z" class="3"/>
      <path fill="#555" d="M156.093 118.411h1v-1h-1v1Zm0 1.113v1h1v-1h-1Zm-7.705 0h-1v1h1v-1Zm0-.798-.84-.543-.16.248v.295h1Zm4.776-7.39v-1h-.545l-.295.457.84.543Zm1.106 0 .874.485.824-1.485h-1.698v1Zm-1.187 2.139.842.538.017-.026.015-.027-.874-.485Zm-3.157 4.936-.842-.539-.984 1.539h1.826v-1Zm4.68-7.075h1v-1h-1v1Zm0 10.664v1h1v-1h-1Zm-1.355 0h-1v1h1v-1Zm0-10.664v-1h-1v1h1Zm1.842 7.075v1.113h2v-1.113h-2Zm1 .113h-7.705v2h7.705v-2Zm-6.705 1v-.798h-2v.798h2Zm-.16-.255 4.775-7.39-1.679-1.086-4.776 7.39 1.68 1.086Zm3.936-6.933h1.106v-2h-1.106v2Zm.231-1.485-1.186 2.138 1.748.971 1.187-2.139-1.749-.97Zm-1.154 2.085-3.157 4.936 1.685 1.078 3.156-4.937-1.684-1.077Zm-2.315 6.475h6.167v-2h-6.167v2Zm3.68-8.075V122h2v-10.664h-2Zm1 9.664h-1.355v2h1.355v-2Zm-.355 1v-10.664h-2V122h2Zm-1-9.664h1.355v-2h-1.355v2Z" class="4"/>
      <path fill="#555" d="m150.6 141.924-.249.969.506.13.395-.34-.652-.759Zm-1.084-.278-.995-.1-.086.855.832.214.249-.969Zm.535-5.31v-1h-.905l-.09.9.995.1Zm5.471 0h1v-1h-1v1Zm0 1.252v1h1v-1h-1Zm-4.321 0v-1h-.895l-.099.89.994.11Zm-.323 2.901-.993-.111-.218 1.961 1.71-.983-.499-.867Zm.74-.315-.307-.952-.004.002.311.95Zm2.366.11-.401.916.01.004.391-.92Zm.996.717-.753.659.006.007.747-.666Zm.645 4.014-.95-.313-.003.01.953.303Zm-.623 1.128.752.659.005-.005-.757-.654Zm-1.055.74-.382-.924-.004.001.386.923Zm-2.71.088-.305.952.007.002.008.003.29-.957Zm-1.025-.55-.642.768.007.005.007.006.628-.779Zm-.733-.922-.894.447.004.007.003.007.887-.461Zm-.351-1.304v-1h-1.103l.108 1.097.995-.097Zm1.289 0 .989-.145-.125-.855h-.864v1Zm1.04 1.633-.447.895.009.004.009.005.429-.904Zm2.878-1.208-.954-.298-.003.007-.002.008.959.283Zm-.417-2.696-.765.644.008.01.757-.654Zm-.667-.498-.42.908.007.003.007.003.406-.914Zm-1.94 0-.462-.887-.008.004.47.883Zm-.462-.47-1.084-.279-.498 1.938 1.084.278.498-1.937Zm-.338.79.535-5.31-1.99-.2-.535 5.31 1.99.2Zm-.46-4.41h5.471v-2h-5.471v2Zm4.471-1v1.252h2v-1.252h-2Zm1 .252h-4.321v2h4.321v-2Zm-5.315.89-.322 2.9 1.987.221.323-2.9-1.988-.221Zm1.17 3.878c.118-.068.297-.148.553-.232l-.623-1.9c-.34.111-.654.241-.927.398l.997 1.734Zm.548-.23c.184-.06.424-.099.733-.099v-2c-.472 0-.925.059-1.347.195l.614 1.904Zm.733-.099c.377 0 .679.065.925.173l.802-1.832a4.263 4.263 0 0 0-1.727-.341v2Zm.935.177c.255.108.462.259.634.456l1.506-1.317a3.731 3.731 0 0 0-1.358-.98l-.782 1.841Zm.64.463c.179.2.327.454.436.779l1.897-.633a4.197 4.197 0 0 0-.839-1.477l-1.494 1.331Zm.436.779c.107.321.168.703.168 1.156h2c0-.632-.085-1.232-.271-1.789l-1.897.633Zm.168 1.156c0 .42-.058.784-.162 1.1l1.899.626a5.488 5.488 0 0 0 .263-1.726h-2Zm-.165 1.11a2.192 2.192 0 0 1-.427.777l1.514 1.308c.372-.431.643-.928.818-1.479l-1.905-.606Zm-.422.772a1.805 1.805 0 0 1-.685.475l.765 1.848a3.81 3.81 0 0 0 1.424-1.005l-1.504-1.318Zm-.689.476c-.271.114-.629.186-1.101.186v2c.672 0 1.304-.103 1.873-.341l-.772-1.845Zm-1.101.186c-.337 0-.647-.045-.932-.132l-.581 1.914c.486.147.992.218 1.513.218v-2Zm-.917-.128a2.13 2.13 0 0 1-.703-.375l-1.256 1.557c.402.323.853.564 1.348.723l.611-1.905Zm-.69-.364a1.967 1.967 0 0 1-.486-.617l-1.775.923c.248.476.573.89.978 1.229l1.283-1.535Zm-.479-.603a2.698 2.698 0 0 1-.251-.954l-1.99.195a4.7 4.7 0 0 0 .452 1.654l1.789-.895Zm-1.246.144h1.289v-2h-1.289v2Zm.3-.855c.074.507.23.987.499 1.406l1.683-1.081c-.083-.128-.161-.322-.204-.615l-1.978.29Zm.499 1.406c.271.421.634.752 1.083.977l.894-1.789a.725.725 0 0 1-.294-.269l-1.683 1.081Zm1.101.986a3.32 3.32 0 0 0 1.432.301v-2c-.261 0-.444-.046-.574-.108l-.858 1.807Zm1.432.301c.439 0 .869-.077 1.268-.257l-.822-1.823c-.098.045-.24.08-.446.08v2Zm1.268-.257a2.7 2.7 0 0 0 .995-.763l-1.551-1.263a.708.708 0 0 1-.266.203l.822 1.823Zm.995-.763c.266-.327.452-.704.572-1.11l-1.919-.566c-.056.189-.128.32-.204.413l1.551 1.263Zm.567-1.096c.128-.41.185-.847.185-1.301h-2c0 .289-.037.521-.094.706l1.909.595Zm.185-1.301c0-.429-.06-.846-.188-1.244l-1.903.613c.057.179.091.387.091.631h2Zm-.188-1.244a3.14 3.14 0 0 0-.612-1.101l-1.514 1.307c.092.107.168.238.223.407l1.903-.613Zm-.604-1.091a2.832 2.832 0 0 0-1.025-.769l-.813 1.828a.839.839 0 0 1 .308.228l1.53-1.287Zm-1.011-.762a3.137 3.137 0 0 0-1.329-.276v2c.222 0 .378.039.488.091l.841-1.815Zm-1.329-.276c-.514 0-1.049.064-1.494.296l.923 1.774.003-.001.006-.003c.006-.002.015-.006.028-.009a.754.754 0 0 1 .11-.026c.1-.018.239-.031.424-.031v-2Zm-1.502.3a4.983 4.983 0 0 0-.893.623l1.304 1.517c.201-.173.377-.294.528-.374l-.939-1.766Z" class="5"/>
      <path fill="#555" d="M154.204 160.321h1v-1h-1v1Zm0 1.15v1h1v-1h-1Zm-1.919.352.429.903.007-.003-.436-.9Zm-1.15.93.806.592.003-.005-.809-.587Zm-.615 1.304-.968-.254-.002.009.97.245Zm-.015 4.299-.956.293.001.004.955-.297Zm1.12 1.479-.461.888.007.003.454-.891Zm1.612.015.433.902.007-.004.007-.003-.447-.895Zm.615-.505-.789-.614-.002.002.791.612Zm.403-2.674-.967.254.001.004.966-.258Zm-.359-.791-.824.567.006.008.818-.575Zm-.608-.549-.496.868.01.006.011.006.475-.88Zm-1.912.073.489.873.005-.003-.494-.87Zm-.798.718-.817-.576-.002.003.819.573Zm-.351.96-.011.999.929.01.078-.925-.996-.084Zm-.718-.008-.992-.124-.14 1.113 1.122.011.01-1Zm.381-1.399-.899-.438-.003.005.902.433Zm.703-.952.659.752.001-.001-.66-.751Zm.945-.542.308.952.008-.003-.316-.949Zm3.442.93-.804.595.004.005.8-.6Zm.549 1.128-.963.269.004.013.959-.282Zm-.029 2.696.952.306-.952-.306Zm-.637 1.157-.761-.649-.006.006.767.643Zm-3.97.703-.486.874.007.004.479-.878Zm-.908-8.555-.842-.54-.003.005.845.535Zm4.101-.919h.118v-2h-.118v2Zm-.882-1v1.15h2v-1.15h-2Zm1 .15h-.118v2h.118v-2Zm-.118 0c-.82 0-1.58.133-2.238.452l.873 1.8c.31-.151.75-.252 1.365-.252v-2Zm-2.23.448a3.95 3.95 0 0 0-1.531 1.247l1.619 1.174c.175-.241.421-.448.77-.614l-.858-1.807Zm-1.527 1.242a4.832 4.832 0 0 0-.777 1.642l1.935.508c.096-.368.248-.686.454-.966l-1.612-1.184Zm-.779 1.651a6.999 6.999 0 0 0-.214 1.717h2c0-.416.051-.824.153-1.228l-1.939-.489Zm-.214 1.717v1.567h2v-1.567h-2Zm0 1.567c0 .551.065 1.073.213 1.553l1.912-.586a3.32 3.32 0 0 1-.125-.967h-2Zm.214 1.557c.141.455.346.874.629 1.236l1.574-1.235a1.824 1.824 0 0 1-.293-.595l-1.91.594Zm.629 1.236c.271.344.597.632.985.834l.923-1.775c-.1-.052-.213-.14-.334-.294l-1.574 1.235Zm.992.837c.384.196.798.3 1.231.3v-2a.691.691 0 0 1-.322-.081l-.909 1.781Zm1.231.3c.439 0 .869-.083 1.268-.274l-.866-1.803a.915.915 0 0 1-.402.077v2Zm1.282-.281c.378-.189.701-.454.959-.789l-1.582-1.223a.785.785 0 0 1-.271.223l.894 1.789Zm.957-.786c.256-.33.439-.704.558-1.108l-1.918-.566a1.324 1.324 0 0 1-.218.446l1.578 1.228Zm.558-1.108c.119-.402.173-.826.173-1.264h-2c0 .274-.034.505-.091.698l1.918.566Zm.173-1.264c0-.4-.049-.792-.151-1.173l-1.932.515c.054.205.083.423.083.658h2Zm-.15-1.169a3.426 3.426 0 0 0-.508-1.112l-1.636 1.149c.086.123.159.276.21.47l1.934-.507Zm-.502-1.104a2.725 2.725 0 0 0-.957-.863l-.95 1.76a.733.733 0 0 1 .259.236l1.648-1.133Zm-.936-.851a2.694 2.694 0 0 0-1.353-.337v2c.194 0 .301.039.361.073l.992-1.736Zm-1.353-.337c-.549 0-1.07.138-1.548.408l.987 1.74c.177-.1.358-.148.561-.148v-2Zm-1.544.406a3.4 3.4 0 0 0-1.126 1.014l1.634 1.152c.123-.174.277-.313.47-.421l-.978-1.745Zm-1.128 1.017a2.936 2.936 0 0 0-.529 1.448l1.993.169a.935.935 0 0 1 .174-.47l-1.638-1.147Zm.478.533-.718-.008-.02 2 .717.007.021-1.999Zm.264 1.116c.059-.468.162-.824.29-1.089l-1.803-.867c-.243.507-.393 1.083-.471 1.708l1.984.248Zm.288-1.085c.142-.291.301-.495.463-.638l-1.319-1.504a3.982 3.982 0 0 0-.942 1.266l1.798.876Zm.464-.639a1.66 1.66 0 0 1 .593-.342l-.617-1.902a3.662 3.662 0 0 0-1.297.742l1.321 1.502Zm.601-.344a2.48 2.48 0 0 1 .797-.125v-2a4.5 4.5 0 0 0-1.43.227l.633 1.898Zm.797-.125c.407 0 .701.077.916.188l.921-1.775c-.556-.289-1.18-.413-1.837-.413v2Zm.916.188c.256.133.454.303.609.513l1.608-1.189a3.731 3.731 0 0 0-1.296-1.099l-.921 1.775Zm.613.518c.171.228.301.491.386.797l1.926-.538a4.366 4.366 0 0 0-.712-1.459l-1.6 1.2Zm.39.81c.095.322.142.655.142 1h2c0-.533-.074-1.056-.223-1.564l-1.919.564Zm.142 1c0 .408-.057.775-.164 1.107l1.904.613c.176-.547.26-1.122.26-1.72h-2Zm-.164 1.107a2.33 2.33 0 0 1-.446.815l1.522 1.298c.373-.438.648-.942.828-1.5l-1.904-.613Zm-.452.821a1.861 1.861 0 0 1-.678.508l.824 1.822a3.857 3.857 0 0 0 1.387-1.045l-1.533-1.285Zm-.678.508c-.257.116-.588.189-1.016.189v2c.656 0 1.277-.112 1.84-.367l-.824-1.822Zm-1.016.189c-.439 0-.771-.088-1.03-.229l-.958 1.756c.601.327 1.274.473 1.988.473v-2Zm-1.022-.225a2.218 2.218 0 0 1-.743-.66l-1.626 1.164c.37.517.838.933 1.396 1.244l.973-1.748Zm-.743-.66a3.327 3.327 0 0 1-.491-1.018l-1.919.563c.172.587.433 1.129.784 1.619l1.626-1.164Zm-.491-1.018a4.215 4.215 0 0 1-.172-1.191h-2c0 .595.085 1.18.253 1.754l1.919-.563Zm-.172-1.191v-.637h-2v.637h2Zm0-.637c0-.684.069-1.353.206-2.007l-1.958-.41a11.807 11.807 0 0 0-.248 2.417h2Zm.206-2.007a4.89 4.89 0 0 1 .65-1.633l-1.69-1.07a6.916 6.916 0 0 0-.918 2.293l1.958.41Zm.646-1.628c.275-.428.66-.78 1.182-1.052l-.926-1.773a5.023 5.023 0 0 0-1.939 1.745l1.683 1.08Zm1.182-1.052c.477-.25 1.152-.407 2.078-.407v-2c-1.134 0-2.154.19-3.004.634l.926 1.773Z" class="6"/>
      <path fill="#555" d="M155.778 185.336h1v-1h-1v1Zm0 .762.914.407.086-.194v-.213h-1ZM151.362 196v1h.649l.264-.593-.913-.407Zm-1.428 0-.908-.419-.655 1.419h1.563v-1Zm4.409-9.551.908.419.655-1.419h-1.563v1Zm-5.772 0h-1v1h1v-1Zm0-1.113v-1h-1v1h1Zm6.207 0v.762h2v-.762h-2Zm.087.354-4.416 9.903 1.826.814 4.417-9.902-1.827-.815Zm-3.503 9.31h-1.428v2h1.428v-2Zm-.52 1.419 4.409-9.551-1.816-.838-4.409 9.551 1.816.838Zm3.501-10.97h-5.772v2h5.772v-2Zm-4.772 1v-1.113h-2v1.113h2Zm-1-.113h7.207v-2h-7.207v2Z" class="7"/>
      <path fill="#555" d="m155.156 219.77-.832-.555-.002.002.834.553Zm-1.216 1.025-.416-.91-.003.002.419.908Zm-4.666-1.025-.836.548.003.004.833-.552Zm-.205-2.82-.906-.423-.003.006.909.417Zm.696-.93-.657-.755-.006.006.663.749Zm1.069-.608.327.945.006-.002-.333-.943Zm3.121.161-.444.896.007.003.437-.899Zm1.208 1.032-.832.555.004.007.828-.562Zm-1.172.433-.874.485.003.006.871-.491Zm-2.864-.718-.491-.871-.006.003.497.868Zm-.695.718.876.48.004-.005-.88-.475Zm-.008 2.102-.876.482.005.008.005.009.866-.499Zm.703.666-.458.889.008.004.009.004.441-.897Zm2.176 0 .447.895.011-.006-.458-.889Zm.696-.666-.871-.493-.002.004.873.489Zm-3.414-3.648-.45.893.003.002.447-.895Zm-1.113-3.962-.846-.533-.005.007.851.526Zm5.479 0-.851.525.004.007.847-.532Zm-1.802.014-.515.858.012.007.503-.865Zm-1.875-.014.486.874.005-.003-.491-.871Zm-.623.63-.875-.485-.006.012.881.473Zm0 1.933-.881.473.006.012.875-.485Zm2.498.637-.491-.871-.007.004.498.867Zm1.461 3.384c0 .49-.112.84-.286 1.101l1.664 1.109c.431-.647.622-1.401.622-2.21h-2Zm-.288 1.103a1.836 1.836 0 0 1-.798.668l.832 1.819a3.841 3.841 0 0 0 1.633-1.382l-1.667-1.105Zm-.801.67c-.359.166-.787.259-1.302.259v2c.763 0 1.483-.14 2.14-.443l-.838-1.816Zm-1.302.259c-.516 0-.947-.093-1.313-.261l-.832 1.819c.66.302 1.381.442 2.145.442v-2Zm-1.313-.261a1.841 1.841 0 0 1-.798-.668l-1.667 1.105a3.841 3.841 0 0 0 1.633 1.382l.832-1.819Zm-.795-.664c-.172-.261-.283-.613-.283-1.107h-2c0 .806.186 1.557.61 2.204l1.673-1.097Zm-.283-1.107c0-.295.055-.539.15-.748l-1.818-.833a3.772 3.772 0 0 0-.332 1.581h2Zm.148-.742a1.82 1.82 0 0 1 .452-.604l-1.326-1.497a3.805 3.805 0 0 0-.939 1.257l1.813.844Zm.446-.598c.198-.173.44-.314.739-.417l-.653-1.891a4.21 4.21 0 0 0-1.4.799l1.314 1.509Zm.745-.419a3.075 3.075 0 0 1 1.037-.163v-2a5.08 5.08 0 0 0-1.702.277l.665 1.886Zm1.037-.163c.523 0 .951.101 1.307.277l.887-1.792c-.669-.332-1.408-.485-2.194-.485v2Zm1.314.28c.365.178.627.408.813.688l1.664-1.109a3.984 3.984 0 0 0-1.604-1.378l-.873 1.799Zm.817.695c.178.262.275.567.275.947h2c0-.752-.201-1.453-.619-2.07l-1.656 1.123Zm.913.918c0-.544-.119-1.067-.386-1.539l-1.742.983c.076.133.128.309.128.556h2Zm-.383-1.533a2.802 2.802 0 0 0-1.106-1.106l-.971 1.748c.144.08.249.185.329.329l1.748-.971Zm-1.106-1.106a3.155 3.155 0 0 0-1.555-.383v2c.261 0 .446.054.584.131l.971-1.748Zm-1.555-.383c-.554 0-1.089.115-1.568.386l.983 1.742c.126-.072.309-.128.585-.128v-2Zm-1.574.389a2.783 2.783 0 0 0-1.078 1.111l1.76.95a.795.795 0 0 1 .313-.326l-.995-1.735Zm-1.075 1.105c-.258.47-.372.989-.372 1.528h2c0-.252.051-.431.125-.567l-1.753-.961Zm-.372 1.528c0 .541.106 1.066.365 1.537l1.753-.964c-.064-.116-.118-.294-.118-.573h-2Zm.375 1.554a2.68 2.68 0 0 0 1.111 1.056l.917-1.777a.686.686 0 0 1-.295-.278l-1.733.999Zm1.128 1.064c.472.233.994.33 1.533.33v-2c-.301 0-.507-.054-.65-.124l-.883 1.794Zm1.533.33c.538 0 1.06-.097 1.531-.332l-.894-1.789c-.135.067-.336.121-.637.121v2Zm1.542-.338c.472-.243.85-.602 1.11-1.067l-1.745-.977a.642.642 0 0 1-.282.267l.917 1.777Zm1.108-1.062c.268-.473.379-1.003.379-1.548h-2c0 .275-.055.449-.119.562l1.74.986Zm-.508-6.521c0 .33-.084.604-.245.849l1.67 1.1a3.491 3.491 0 0 0 .575-1.949h-2Zm-.245.849a1.854 1.854 0 0 1-.737.639l.902 1.785a3.854 3.854 0 0 0 1.505-1.324l-1.67-1.1Zm-.737.639c-.316.159-.695.251-1.16.251v2c.736 0 1.431-.148 2.062-.466l-.902-1.785Zm-1.16.251c-.477 0-.865-.093-1.186-.253l-.895 1.789c.636.318 1.337.464 2.081.464v-2Zm-1.183-.251a1.796 1.796 0 0 1-.724-.633l-1.679 1.087a3.79 3.79 0 0 0 1.502 1.331l.901-1.785Zm-.724-.633a1.517 1.517 0 0 1-.243-.855h-2c0 .701.185 1.357.564 1.942l1.679-1.087Zm-.243-.855c0-.474.102-.811.254-1.057l-1.702-1.051c-.385.623-.552 1.342-.552 2.108h2Zm.25-1.05c.171-.272.4-.478.71-.628l-.872-1.8a3.67 3.67 0 0 0-1.531 1.363l1.693 1.065Zm.71-.628c.318-.155.705-.245 1.182-.245v-2c-.733 0-1.426.14-2.054.445l.872 1.8Zm1.182-.245c.484 0 .873.091 1.19.245l.872-1.8c-.629-.305-1.324-.445-2.062-.445v2Zm1.19.245c.308.149.533.354.699.621l1.701-1.051a3.61 3.61 0 0 0-1.528-1.37l-.872 1.8Zm.703.628c.154.245.257.579.257 1.05h2c0-.769-.171-1.49-.564-2.115l-1.693 1.065Zm.902 1.072c0-.502-.108-.988-.352-1.429l-1.75.968c.058.106.102.25.102.461h2Zm-.352-1.429a2.674 2.674 0 0 0-1.002-1.025l-1.006 1.729a.669.669 0 0 1 .258.264l1.75-.968Zm-.991-1.018a2.778 2.778 0 0 0-1.452-.384v2c.201 0 .331.043.423.099l1.029-1.715Zm-1.452-.384c-.501 0-.988.107-1.428.356l.982 1.742a.88.88 0 0 1 .446-.098v-2Zm-1.423.353c-.433.24-.773.588-1.012 1.019l1.75.969a.577.577 0 0 1 .234-.24l-.972-1.748Zm-1.018 1.031a3.036 3.036 0 0 0-.338 1.447h2c0-.246.047-.402.101-.502l-1.763-.945Zm-.338 1.447c0 .501.101.989.338 1.431l1.763-.944a1.01 1.01 0 0 1-.101-.487h-2Zm.344 1.444c.24.433.582.78 1.014 1.024l.982-1.743a.611.611 0 0 1-.246-.25l-1.75.969Zm1.014 1.024c.441.248.927.356 1.429.356v-2a.88.88 0 0 1-.447-.099l-.982 1.743Zm1.429.356c.501 0 .988-.108 1.428-.36l-.996-1.735a.839.839 0 0 1-.432.095v2Zm1.421-.356a2.62 2.62 0 0 0 1.014-1.024l-1.75-.969a.611.611 0 0 1-.246.25l.982 1.743Zm1.014-1.024c.246-.446.352-.938.352-1.444h-2a.962.962 0 0 1-.102.475l1.75.969Z" class="8"/>
    </g>
  </g>
</svg>
