<?xml version="1.0" encoding="UTF-8" standalone="no"?>
<!-- Created with Inkscape (http://www.inkscape.org/) -->

<svg
   width="73"
   height="64"
   viewBox="0 0 19.314583 16.933334"
   version="1.1"
   id="svg885"
   sodipodi:docname="linkedin-logo.svg"
   inkscape:version="1.1.2 (b8e25be833, 2022-02-05)"
   xmlns:inkscape="http://www.inkscape.org/namespaces/inkscape"
   xmlns:sodipodi="http://sodipodi.sourceforge.net/DTD/sodipodi-0.dtd"
   xmlns="http://www.w3.org/2000/svg"
   xmlns:svg="http://www.w3.org/2000/svg">
  <sodipodi:namedview
     id="namedview887"
     pagecolor="#505050"
     bordercolor="#eeeeee"
     borderopacity="1"
     inkscape:pageshadow="0"
     inkscape:pageopacity="0"
     inkscape:pagecheckerboard="0"
     inkscape:document-units="mm"
     showgrid="false"
     units="px"
     width="64px"
     inkscape:zoom="5.1241863"
     inkscape:cx="-0.48788234"
     inkscape:cy="28.102023"
     inkscape:window-width="1680"
     inkscape:window-height="997"
     inkscape:window-x="-8"
     inkscape:window-y="-8"
     inkscape:window-maximized="1"
     inkscape:current-layer="layer1" />
  <defs
     id="defs882" />
  <g
     inkscape:label="Layer 1"
     inkscape:groupmode="layer"
     id="layer1">
    <g
       id="g958"
       transform="matrix(0.24718485,0,0,0.24718485,0.1870839,0.40260903)">
      <path
         fill="#ffffff"
         d="m 72.865,61.1094 a 1.2,1.2 0 0 0 1.21,-1.269 c 0,-0.9 -0.543,-1.33 -1.657,-1.33 h -1.8 v 4.712 h 0.677 v -2.054 h 0.832 l 0.019,0.025 1.291,2.029 h 0.724 l -1.389,-2.1 z m -0.783,-0.472 h -0.785 v -1.593 h 0.995 c 0.514,0 1.1,0.084 1.1,0.757 0,0.774 -0.593,0.836 -1.314,0.836 m -16.873,-5.433 h -9.6 v -15.034 c 0,-3.585 -0.064,-8.2 -4.993,-8.2 -5,0 -5.765,3.906 -5.765,7.939 v 15.294 h -9.6 v -30.916 h 9.216 v 4.225 h 0.129 a 10.1,10.1 0 0 1 9.093,-4.994 c 9.73,0 11.524,6.4 11.524,14.726 z m -40.79,-35.143 a 5.571,5.571 0 1 1 5.57,-5.572 5.571,5.571 0 0 1 -5.57,5.572 m 4.8,35.143 h -9.61 v -30.917 h 9.61 z m 40.776,-55.2 H 4.781 A 4.728,4.728 0 0 0 0,4.6744 v 55.439 a 4.731,4.731 0 0 0 4.781,4.675 h 55.21 a 4.741,4.741 0 0 0 4.8,-4.675 V 4.6704 a 4.738,4.738 0 0 0 -4.8,-4.67"
         id="path946" />
      <path
         fill="#ffffff"
         d="m 72.164,56.4114 a 4.418,4.418 0 1 0 0.085,0 h -0.085 m 0,8.33 a 3.874,3.874 0 1 1 3.809,-3.938 v 0.065 a 3.791,3.791 0 0 1 -3.708,3.871 h -0.1"
         id="path948" />
    </g>
  </g>
</svg>
