<svg xmlns="http://www.w3.org/2000/svg" width="1307" height="408" fill="none" viewBox="0 0 1307 408">
  <path fill="#414141" d="m25.4 168.4.2-.8H80c13.6 0 25.733-3.067 36.4-9.2 10.667-6.267 19.667-14.333 27-24.2 7.333-10 12.933-20.8 16.8-32.4 3.867-11.6 5.8-22.867 5.8-33.8 0-5.867-.6-12.4-1.8-19.6-1.2-7.333-3.467-14.267-6.8-20.8-3.333-6.667-8-12.133-14-16.4-6-4.267-13.8-6.4-23.4-6.4H79.8L10.2 303.2H50v.8H-60v-.8h32.2L41.8 4.8H6V4h114c17.467 0 32.933 2.333 46.4 7 13.6 4.667 24.267 12 32 22 7.733 10 11.6 23 11.6 39 0 20-5.267 37.2-15.8 51.6-10.4 14.4-25.333 25.467-44.8 33.2-19.467 7.733-42.6 11.6-69.4 11.6H25.4ZM205.797 304l45.6-183.2h-31.2v-.8h61.2l-44 184h-31.6Zm47.2-69.2c2.267-9.6 5-19.8 8.2-30.6 3.2-10.8 6.867-21.4 11-31.8 4.267-10.4 9.067-19.8 14.4-28.2 5.333-8.533 11.333-15.333 18-20.4 6.667-5.067 14.067-7.6 22.2-7.6 9.067 0 16.133 2.533 21.2 7.6 5.2 4.933 7.8 10.8 7.8 17.6 0 6.4-1.8 11.933-5.4 16.6-3.467 4.533-8.533 6.8-15.2 6.8-6.533 0-11.8-2.133-15.8-6.4s-6-9.533-6-15.8c0-5.467 1.867-9.933 5.6-13.4 3.733-3.6 9.067-5.4 16-5.4 5.467 0 10.2 1.667 14.2 5 4.133 3.333 6.2 7.533 6.2 12.6h-.4c0-6.533-2.467-12.2-7.4-17-4.8-4.933-11.733-7.4-20.8-7.4-8 0-15.333 2.533-22 7.6-6.533 5.067-12.467 11.8-17.8 20.2-5.2 8.4-9.867 17.8-14 28.2a353.465 353.465 0 0 0-11 31.6c-3.2 10.667-5.933 20.733-8.2 30.2h-.8ZM446.931 308c-20.133 0-35.066-6.133-44.8-18.4-9.733-12.267-14.6-27.4-14.6-45.4 0-17.467 2.867-33.933 8.6-49.4 5.867-15.467 13.8-29.067 23.8-40.8 10-11.867 21.4-21.133 34.2-27.8 12.934-6.8 26.467-10.2 40.6-10.2 20.267 0 35.2 6.2 44.8 18.6 9.734 12.267 14.6 27.4 14.6 45.4 0 17.467-2.933 33.933-8.8 49.4-5.733 15.467-13.6 29.133-23.6 41-10 11.733-21.466 20.933-34.4 27.6-12.8 6.667-26.266 10-40.4 10Zm-4-.8c7.334 0 14.467-2.467 21.4-7.4 7.067-5.067 13.8-11.867 20.2-20.4 6.4-8.533 12.267-18.2 17.6-29 5.334-10.8 9.934-22.133 13.8-34 4-11.867 7.067-23.6 9.2-35.2 2.267-11.6 3.4-22.333 3.4-32.2 0-9.867-2.4-17.667-7.2-23.4-4.8-5.733-12.333-8.6-22.6-8.6-7.2 0-14.333 2.533-21.4 7.6-7.066 4.933-13.8 11.667-20.2 20.2-6.4 8.533-12.266 18.2-17.6 29-5.333 10.8-10 22.133-14 34-3.866 11.867-6.933 23.6-9.2 35.2-2.133 11.467-3.2 22.2-3.2 32.2 0 9.733 2.4 17.533 7.2 23.4 4.934 5.733 12.467 8.6 22.6 8.6ZM522.309 408c-6.133 0-12.2-1.133-18.2-3.4-6.133-2.133-11.133-5.333-15-9.6-4-4.267-6-9.467-6-15.6 0-4.8 1-8.867 3-12.2 1.867-3.2 4.4-5.6 7.6-7.2 3.067-1.6 6.467-2.4 10.2-2.4 6 0 11 1.733 15 5.2 3.867 3.6 5.8 8.4 5.8 14.4 0 5.067-1.666 9.6-5 13.6-3.333 4.133-8.333 6.2-15 6.2-5.733 0-10.666-1.733-14.8-5.2-4.266-3.333-6.4-7.467-6.4-12.4h.4c0 6 1.934 11.067 5.8 15.2 3.734 4.133 8.6 7.267 14.6 9.4 5.867 2.133 11.867 3.2 18 3.2 9.334 0 17.2-3.933 23.6-11.8 6.267-7.867 11.667-18.333 16.2-31.4 4.4-12.933 8.534-27.133 12.4-42.6l49.4-200.6h-28.4v-.8h61.2l-48.4 188.6a224.717 224.717 0 0 1-12.8 36.6c-5.2 11.867-11.4 22.533-18.6 32-7.2 9.467-15.333 16.933-24.4 22.4-9.066 5.6-19.133 8.4-30.2 8.4Zm134-359.8c-6.533 0-12.2-2.4-17-7.2-4.666-4.8-7-10.467-7-17 0-6.667 2.334-12.333 7-17 4.8-4.667 10.467-7 17-7 6.667 0 12.267 2.333 16.8 7 4.667 4.667 7 10.333 7 17 0 6.533-2.333 12.2-7 17-4.533 4.8-10.133 7.2-16.8 7.2Zm82 259.8c-12.8 0-23.6-2.667-32.4-8-8.8-5.467-15.466-13-20-22.6-4.533-9.6-6.8-20.733-6.8-33.4 0-15.333 2.8-30.533 8.4-45.6 5.6-15.2 13.467-29 23.6-41.4 10.134-12.4 22-22.333 35.6-29.8 13.734-7.467 28.6-11.2 44.6-11.2 14.4 0 25.534 3.6 33.4 10.8 8 7.067 12 15.867 12 26.4 0 10.933-3.733 20.533-11.2 28.8-7.466 8.267-17.466 15.267-30 21-12.4 5.6-26.133 10-41.2 13.2-14.933 3.2-30 5.333-45.2 6.4v-.8c12.134-.8 23.267-2.267 33.4-4.4 10.267-2.267 19.334-5.333 27.2-9.2 8-3.867 14.734-8.667 20.2-14.4 5.6-5.867 9.867-12.867 12.8-21 2.934-8.133 4.4-17.533 4.4-28.2 0-6.8-1.333-13.133-4-19-2.533-5.867-7.4-8.8-14.6-8.8-7.6 0-14.866 2.267-21.8 6.8-6.8 4.533-13.2 10.733-19.2 18.6-5.866 7.733-11.2 16.6-16 26.6-4.8 9.867-8.933 20.267-12.4 31.2-3.333 10.933-5.933 21.8-7.8 32.6-1.733 10.8-2.6 20.933-2.6 30.4 0 16.8 3.067 28.267 9.2 34.4 6.267 6.133 14.067 9.2 23.4 9.2 11.867 0 22.734-2.467 32.6-7.4 10-4.933 18.867-11.467 26.6-19.6 7.867-8.267 14.4-17.4 19.6-27.4l.6.2c-5.2 10.133-11.8 19.4-19.8 27.8-7.866 8.4-17.066 15.133-27.6 20.2-10.4 5.067-22.066 7.6-35 7.6Zm183.622 0c-19.2 0-33.933-5.933-44.2-17.8-10.133-11.867-15.2-27.267-15.2-46.2 0-15.467 2.867-30.733 8.6-45.8 5.734-15.2 13.534-29 23.4-41.4 10-12.4 21.4-22.267 34.2-29.6 12.8-7.467 26.267-11.2 40.4-11.2 10.934 0 20.267 2.133 28 6.4 7.869 4.133 13.869 9.133 17.999 15 4.27 5.867 6.4 11.4 6.4 16.6 0 7.067-2 12.667-6 16.8-3.87 4-8.73 6-14.6 6-4.932 0-9.465-1.6-13.599-4.8-4.133-3.2-6.2-8.267-6.2-15.2 0-5.467 1.867-10.133 5.6-14 3.734-4 8.134-6 13.2-6 3.869 0 7.399.467 10.599 1.4 3.2.933 5.73 2.667 7.6 5.2 2 2.4 3 5.933 3 10.6h-.4c0-5.2-2-10.6-6-16.2-4-5.733-9.67-10.6-16.999-14.6-7.333-4-16-6-26-6-9.066 0-17.666 3.267-25.8 9.8-8 6.533-15.266 15.2-21.8 26-6.533 10.8-12.2 22.6-17 35.4-4.8 12.8-8.466 25.6-11 38.4-2.533 12.8-3.8 24.333-3.8 34.6 0 12.933 2.534 23.733 7.6 32.4 5.2 8.533 13.467 12.8 24.8 12.8 11.734 0 22.6-2.467 32.6-7.4 10-5.067 18.867-11.733 26.6-20 7.867-8.267 14.467-17.333 19.799-27.2l.6.2c-5.199 10-11.799 19.267-19.799 27.8-8 8.4-17.266 15.2-27.8 20.4-10.4 5.067-22 7.6-34.8 7.6Zm157.999 0c-8.27 0-15-1.333-20.2-4-5.2-2.533-9.07-5.867-11.6-10-2.4-4.267-3.6-8.667-3.6-13.2 0-2.133.33-5.133 1-9 .67-3.867 1.53-7.8 2.6-11.8l48.8-180h32l-57.6 209.4c-.4 1.333-.8 2.933-1.2 4.8-.4 1.733-.6 3.533-.6 5.4 0 4.8 4.13 7.2 12.4 7.2 7.2 0 14-1.467 20.4-4.4 6.53-3.067 12.6-7.467 18.2-13.2 5.73-5.867 11.07-13 16-21.4 5.07-8.533 9.73-18.267 14-29.2l.6.2c-5.73 14.667-12.13 27.2-19.2 37.6-6.93 10.267-14.73 18.133-23.4 23.6-8.53 5.333-18.07 8-28.6 8Zm-34-187.2v-.8h108v.8h-108ZM1226.25 308c-11.2 0-21.87-1.733-32-5.2-10-3.6-18.2-8.8-24.6-15.6-6.4-6.933-9.6-15.333-9.6-25.2 0-5.867 1.73-10.933 5.2-15.2 3.6-4.4 8.53-6.6 14.8-6.6 5.46 0 9.93 1.933 13.4 5.8 3.46 3.733 5.2 8.533 5.2 14.4 0 6.133-1.94 10.8-5.8 14-3.87 3.2-8.34 4.8-13.4 4.8-3.47 0-6.67-.6-9.6-1.8-2.8-1.2-5.07-3.067-6.8-5.6-1.74-2.533-2.6-5.8-2.6-9.8h.4c0 9.867 3.13 18.2 9.4 25 6.26 6.667 14.4 11.733 24.4 15.2 10 3.333 20.46 5 31.4 5 7.46 0 15.26-1.2 23.4-3.6 8.26-2.4 15.26-6.267 21-11.6 5.86-5.333 8.8-12.4 8.8-21.2 0-7.467-2.27-14.067-6.8-19.8-4.54-5.733-10.4-11-17.6-15.8-7.2-4.8-14.87-9.467-23-14-8.14-4.667-15.8-9.533-23-14.6-7.2-5.2-13.07-10.933-17.6-17.2-4.54-6.4-6.8-13.8-6.8-22.2 0-9.867 2.86-18.6 8.6-26.2 5.73-7.733 13.66-13.733 23.8-18 10.13-4.4 21.73-6.6 34.8-6.6 11.73 0 21.66 1.8 29.8 5.4 8.26 3.6 14.53 8.133 18.8 13.6 4.4 5.467 6.6 11 6.6 16.6 0 7.2-1.87 12.467-5.6 15.8-3.6 3.2-7.74 4.8-12.4 4.8-4.94 0-9.34-1.533-13.2-4.6-3.74-3.2-5.6-8.067-5.6-14.6 0-5.2 1.73-9.6 5.2-13.2 3.6-3.733 8.13-5.6 13.6-5.6 5.6 0 9.93 1.667 13 5 3.06 3.2 4.6 7.333 4.6 12.4h-.4c0-5.467-2.14-10.867-6.4-16.2-4.14-5.333-10.27-9.733-18.4-13.2-8-3.6-17.87-5.4-29.6-5.4-6.8 0-13.94 1-21.4 3-7.34 2-13.6 5.267-18.8 9.8-5.07 4.533-7.6 10.733-7.6 18.6 0 6.667 2.2 12.533 6.6 17.6 4.53 5.067 10.33 9.8 17.4 14.2 7.06 4.267 14.53 8.6 22.4 13 8 4.4 15.53 9.267 22.6 14.6 7.06 5.333 12.8 11.467 17.2 18.4 4.53 6.933 6.8 15.2 6.8 24.8 0 11.867-3.47 22.067-10.4 30.6-6.94 8.4-15.8 14.867-26.6 19.4-10.8 4.533-22 6.8-33.6 6.8Z"/>
</svg>
