<?xml version="1.0" encoding="UTF-8" standalone="no"?>
<!-- Created with Inkscape (http://www.inkscape.org/) -->

<svg
   width="64"
   height="64"
   viewBox="0 0 16.933333 16.933334"
   version="1.1"
   id="svg5"
   xmlns="http://www.w3.org/2000/svg"
   xmlns:svg="http://www.w3.org/2000/svg">
  <defs
     id="defs2" />
  <g
     id="layer1">
    <g
       id="g847"
       transform="matrix(0.71322464,0,0,0.71322464,8.4666667,8.4666667)">
      <path
         id="circle826"
         style="fill:#ffffff;stroke:none;stroke-opacity:1;fill-opacity:1"
         d="M 2.05,0 A 2.05,2.05 0 0 1 0,2.05 2.05,2.05 0 0 1 -2.05,0 2.05,2.05 0 0 1 0,-2.05 2.05,2.05 0 0 1 2.05,0 Z" />
      <g
         stroke="#61dafb"
         stroke-width="1"
         fill="none"
         id="g834">
        <path
           id="ellipse828"
           d="M 11,0 A 11,4.1999998 0 0 1 0,4.1999998 11,4.1999998 0 0 1 -11,0 11,4.1999998 0 0 1 0,-4.1999998 11,4.1999998 0 0 1 11,0 Z"
           style="stroke:#ffffff;stroke-opacity:1" />
        <ellipse
           rx="10.999339"
           ry="4.1999998"
           transform="rotate(60)"
           id="ellipse830"
           cx="0"
           cy="0"
           style="stroke:#ffffff;stroke-opacity:1" />
        <path
           id="ellipse832"
           transform="rotate(120)"
           d="M 11,0 A 11,4.1999998 0 0 1 0,4.1999998 11,4.1999998 0 0 1 -11,0 11,4.1999998 0 0 1 0,-4.1999998 11,4.1999998 0 0 1 11,0 Z"
           style="stroke:#ffffff;stroke-opacity:1" />
      </g>
    </g>
  </g>
</svg>
