<?xml version="1.0" encoding="UTF-8" standalone="no"?>
<!-- Created with Inkscape (http://www.inkscape.org/) -->

<svg
   width="64"
   height="64"
   viewBox="0 0 16.933333 16.933334"
   version="1.1"
   id="svg5"
   xmlns="http://www.w3.org/2000/svg"
   xmlns:svg="http://www.w3.org/2000/svg">
  <defs
     id="defs2" />
  <g
     id="layer1">
    <path
       d="m 11.753941,11.509105 c -0.05037,-0.03585 -0.042,-0.151717 0.123663,-0.51259 0.06503,-0.141688 0.213417,-0.380232 0.471379,-0.608198 0.02988,0.09375 0.0481,0.183654 0.04759,0.267352 -0.0033,0.55835 -0.401707,0.766869 -0.642628,0.853436 z m -2.120493,0.48337 c -0.067525,0.03533 -0.129429,0.05753 -0.1582078,0.0404 -0.021096,-0.0126 0.027849,-0.05911 0.027849,-0.05911 0,0 0.3443252,-0.37038 0.4799273,-0.539051 0.078886,-0.09807 0.1703525,-0.21449 0.2700175,-0.344702 8.43e-4,0.01301 0.0013,0.02591 0.0013,0.03866 -0.0011,0.443759 -0.429675,0.743364 -0.620835,0.863806 z M 6.8808768,10.679114 C 6.7215967,11.067432 6.3882265,12.060875 6.1853296,12.007633 6.0111531,11.961935 5.9050821,11.206745 6.1505516,10.463523 6.2740981,10.089406 6.5380297,9.6423711 6.6930787,9.4688608 6.9426929,9.1896568 7.2175217,9.0983375 7.284294,9.2115376 7.3694112,9.3557766 6.9807455,10.435701 6.8808768,10.679114 Z M 3.5492047,12.94405 C 3.091891,13.442959 2.4529612,13.631504 2.1789848,13.472699 1.8831396,13.301154 2.0003109,12.566652 2.5615276,12.037225 c 0.342067,-0.322642 0.7836445,-0.619817 1.076591,-0.802861 0.06666,-0.04011 0.1646131,-0.09903 0.2836389,-0.170352 0.019733,-0.01125 0.030864,-0.01748 0.030864,-0.01748 l -4.279e-4,-7.72e-4 c 0.022979,-0.01374 0.046513,-0.02785 0.070831,-0.04237 0.2042011,0.753568 0.00619,1.416998 -0.473813,1.940638 z M 14.191371,9.3562404 c -0.554844,0.00295 -1.035409,0.1361252 -1.438248,0.3346743 -0.14734,-0.2940427 -0.296447,-0.5527285 -0.321486,-0.7450768 -0.02924,-0.2245451 -0.06312,-0.3584961 -0.02782,-0.6259927 0.03533,-0.2674958 0.190087,-0.646279 0.187826,-0.6746515 -0.0023,-0.028369 -0.03472,-0.1646413 -0.354728,-0.1669602 -0.32004,-0.00232 -0.593796,0.061559 -0.625993,0.1460653 -0.03223,0.084509 -0.09384,0.2746826 -0.132183,0.4729718 C 11.422683,8.3874588 10.83979,9.4223754 10.508825,9.9638012 10.400582,9.7524996 10.308537,9.5661801 10.289351,9.41884 10.26014,9.1942941 10.226233,9.0603432 10.261531,8.7928185 10.296861,8.5253508 10.451617,8.14651 10.449357,8.1181373 10.447057,8.0897683 10.414657,7.9535243 10.094627,7.9512059 9.7745889,7.9488859 9.500833,8.0127649 9.4686341,8.0972706 9.4364071,8.1817796 9.4020081,8.3792278 9.3364526,8.5702423 9.2708956,8.7612864 8.4960571,10.487664 8.2931307,10.935133 8.1897258,11.163128 8.0997395,11.346289 8.0362129,11.4714 c -1.728e-4,-3.35e-4 -4.026e-4,-6.51e-4 -4.026e-4,-6.51e-4 0,0 -0.00394,0.0083 -0.010667,0.02237 -0.05437,0.106476 -0.086741,0.165389 -0.086741,0.165389 0,0 3.457e-4,8.44e-4 9.838e-4,0.0022 -0.043127,0.07819 -0.089349,0.150815 -0.1122438,0.150815 -0.015994,0 -0.048025,-0.208143 0.00696,-0.493834 C 7.949384,10.718799 8.2263567,9.7848528 8.2236035,9.752684 8.2221235,9.736191 8.2750715,9.5734641 8.0427321,9.488375 7.8168819,9.405721 7.736459,9.543582 7.7158537,9.544017 7.6958827,9.544426 7.6810477,9.59273 7.6810477,9.59273 c 0,0 0.2516149,-1.0502761 -0.4799273,-1.0502761 -0.4573516,0 -1.091082,0.5003009 -1.4032671,0.9537981 -0.1970127,0.1074713 -0.6186018,0.3376108 -1.0658959,0.58337 -0.1718006,0.09436 -0.3471071,0.190842 -0.5133435,0.282421 -0.0113,-0.01252 -0.022579,-0.02507 -0.034195,-0.03747 C 3.2973783,9.3781598 1.6575874,8.7087822 1.7271771,7.4364817 1.7524683,6.9739419 1.9132444,5.7560387 4.8780213,4.2786959 7.3066415,3.0685015 9.25087,3.4015237 9.5868782,4.1395865 10.066863,5.1940362 8.5477873,7.1537703 6.0256461,7.4364817 5.0646888,7.5442041 4.5587071,7.1717967 4.4328424,7.0330636 4.3003692,6.8870574 4.2806043,6.8804777 4.2311337,6.9078651 c -0.080568,0.044659 -0.029501,0.1735687 0,0.2503971 0.075322,0.195999 0.3843186,0.5435417 0.911167,0.716414 C 5.6057668,8.0267688 6.7340027,8.1103216 8.0983773,7.5825469 9.6265536,6.9914404 10.819824,5.3471092 10.469326,3.9726491 10.112886,2.5747436 7.7950614,2.1151895 5.6013916,2.8945505 4.2958197,3.3583647 2.8824848,4.086342 1.8662988,5.0368369 0.65802223,6.1670138 0.46534363,7.1506629 0.54473562,7.5616739 0.82683833,9.0220628 2.839726,9.9730786 3.6457727,10.6779 c -0.039788,0.02194 -0.07709,0.04254 -0.1110266,0.06126 -0.4041214,0.199912 -1.9384822,1.002889 -2.3222793,1.851313 -0.43534992,0.962379 0.06931,1.652854 0.4034173,1.74582 1.0351576,0.288046 2.097415,-0.230048 2.6682859,-1.08154 0.570754,-0.851298 0.5010548,-1.959763 0.2390944,-2.465745 -0.00324,-0.0063 -0.00682,-0.01243 -0.010175,-0.01867 0.1043325,-0.06176 0.2107513,-0.124562 0.3162131,-0.186495 0.205679,-0.120764 0.4075619,-0.233442 0.582782,-0.328791 -0.098014,0.268626 -0.1698295,0.590607 -0.2071864,1.05561 -0.043878,0.5463 0.1800021,1.25242 0.4729725,1.53023 0.1289946,0.1223 0.2841891,0.125176 0.3825512,0.125176 0.3409048,0 0.4964758,-0.28361 0.6677256,-0.619044 0.2100843,-0.411383 0.3964616,-0.890297 0.3964616,-0.890297 0,0 -0.2339357,1.293712 0.4034468,1.293712 0.232226,0 0.4658426,-0.301144 0.5698849,-0.454685 2.874e-4,0.0017 4.357e-4,0.0026 4.357e-4,0.0026 0,0 0.00605,-0.01 0.017884,-0.03004 0.024111,-0.03688 0.037765,-0.06034 0.037765,-0.06034 0,0 4.597e-4,-0.0025 0.00119,-0.0067 0.093348,-0.162092 0.3003892,-0.531633 0.6108933,-1.141016 0.4011574,-0.787331 0.7859397,-1.7736459 0.7859397,-1.7736459 0,0 0.03579,0.2411513 0.1530211,0.6399031 0.068973,0.2346308 0.2155038,0.4939838 0.3311095,0.7426998 -0.09306,0.129111 -0.1502676,0.203274 -0.1502676,0.203274 0,0 5.748e-4,0.0014 0.00155,0.0038 -0.074365,0.09871 -0.1577446,0.205245 -0.2449776,0.309114 -0.3166188,0.377102 -0.6937506,0.807729 -0.7442647,0.932033 -0.059471,0.146444 -0.04541,0.254162 0.069556,0.340824 0.083988,0.0633 0.2335015,0.07311 0.3895076,0.0626 0.2845371,-0.01912 0.4847384,-0.0897 0.5835059,-0.132679 0.1539764,-0.05446 0.3332844,-0.140095 0.5015774,-0.263786 0.31059,-0.228339 0.497924,-0.554989 0.479927,-0.987672 -0.01,-0.238457 -0.08602,-0.474798 -0.182204,-0.697923 0.0282,-0.04052 0.05646,-0.08141 0.0848,-0.122822 0.489636,-0.7158062 0.869435,-1.5023825 0.869435,-1.5023825 0,0 0.03579,0.2411225 0.153047,0.6399031 0.05932,0.2018534 0.176381,0.4220234 0.28164,0.6379904 -0.460395,0.374088 -0.745917,0.808748 -0.845062,1.093923 -0.183305,0.527372 -0.03973,0.766342 0.22956,0.820739 0.121982,0.02466 0.294247,-0.03123 0.423849,-0.0861 0.161253,-0.05347 0.355021,-0.142531 0.536006,-0.275559 0.310592,-0.22834 0.609214,-0.548088 0.591217,-0.980748 -0.0082,-0.196985 -0.06165,-0.392491 -0.134126,-0.580318 0.390261,-0.1625556 0.895547,-0.2529481 1.539131,-0.1778006 1.380662,0.1612226 1.65152,1.0232956 1.599759,1.3841116 -0.05179,0.360843 -0.341397,0.559162 -0.438224,0.619072 -0.0968,0.05986 -0.126357,0.08065 -0.118214,0.125195 0.01176,0.06475 0.05654,0.06225 0.139081,0.04834 0.113663,-0.01919 0.725021,-0.293493 0.751192,-0.959511 0.03324,-0.845553 -0.776869,-1.774342 -2.211841,-1.7666907"
       style="fill:#ffffff;fill-opacity:1;fill-rule:nonzero;stroke:none;stroke-width:0.00289811"
       id="path14" />
  </g>
</svg>
